<svg width="24" height="24" viewBox="0 0 24 24" fill="none" xmlns="http://www.w3.org/2000/svg">
<path d="M20.0559 20.0569L18.4012 20.5003L17.4244 16.8544C18.197 16.4674 18.8126 15.8259 19.1673 15.0379C19.5221 14.2499 19.5942 13.3637 19.3716 12.5288C18.1903 8.1225 15.7359 4.25813 15.6319 4.09594C15.5472 3.96359 15.4231 3.86116 15.2771 3.80313C15.1311 3.7451 14.9705 3.73439 14.8181 3.7725L12.7687 4.28532C12.7687 3.51188 12.7519 3.02625 12.7491 2.96532C12.7416 2.8042 12.6824 2.64979 12.5802 2.52499C12.478 2.40018 12.3383 2.31164 12.1819 2.2725L9.18188 1.5225C9.02945 1.48438 8.8689 1.4951 8.7229 1.55313C8.57689 1.61116 8.45279 1.71359 8.36813 1.84594C8.26406 2.00813 5.80969 5.87063 4.62844 10.2834C4.40581 11.1184 4.47794 12.0046 4.83265 12.7926C5.18736 13.5806 5.80296 14.2221 6.57562 14.6091L5.59875 18.2503L3.94406 17.8069C3.75186 17.7554 3.54709 17.7824 3.37479 17.8819C3.20249 17.9814 3.07678 18.1453 3.02531 18.3375C2.97384 18.5297 3.00083 18.7345 3.10035 18.9068C3.19986 19.0791 3.36374 19.2048 3.55594 19.2563L8.05594 20.4619C8.11929 20.4785 8.1845 20.487 8.25 20.4872C8.43211 20.4874 8.60808 20.4213 8.74506 20.3013C8.88205 20.1813 8.97069 20.0156 8.99445 19.835C9.01821 19.6545 8.97546 19.4715 8.87419 19.3201C8.77291 19.1688 8.62003 19.0594 8.44406 19.0125L7.04719 18.6375L8.02406 14.9916C8.1 14.9963 8.175 14.9991 8.25 14.9991C8.99406 14.997 9.72078 14.7742 10.3382 14.3591C10.9557 13.9439 11.4361 13.3549 11.7188 12.6666C11.8294 13.2638 11.9625 13.8684 12.1228 14.4684C12.3374 15.2664 12.8091 15.9714 13.4648 16.4742C14.1205 16.977 14.9237 17.2497 15.75 17.25C15.825 17.25 15.9 17.25 15.9759 17.2425L16.9528 20.8884L15.5559 21.2634C15.3808 21.311 15.2288 21.4205 15.1283 21.5716C15.0277 21.7227 14.9853 21.9052 15.009 22.0851C15.0327 22.2651 15.1209 22.4303 15.2571 22.5502C15.3934 22.6701 15.5685 22.7366 15.75 22.7372C15.8155 22.737 15.8807 22.7285 15.9441 22.7119L20.4441 21.5063C20.6363 21.4548 20.8001 21.3291 20.8997 21.1568C20.9992 20.9845 21.0262 20.7797 20.9747 20.5875C20.9232 20.3953 20.7975 20.2314 20.6252 20.1319C20.4529 20.0324 20.2481 20.0054 20.0559 20.0569ZM14.6456 5.36157C14.9063 5.80219 15.3234 6.53719 15.7894 7.46719L12.75 8.22844C12.7106 7.29094 12.7144 6.5175 12.7266 5.99813C12.7266 5.94563 12.7313 5.89313 12.7341 5.84063L14.6456 5.36157ZM9.35437 3.11157L11.2641 3.58875C11.2697 3.99 11.2641 4.58907 11.2444 5.32032C11.2388 5.43375 11.2294 5.61938 11.2228 5.86782C11.2228 5.96157 11.2134 6.05532 11.2078 6.14907L8.12719 5.38407C8.625 4.37532 9.07875 3.5775 9.35437 3.11157ZM10.4222 11.8388C10.261 12.4083 9.8818 12.8913 9.36689 13.1832C8.85197 13.4751 8.24276 13.5524 7.67129 13.3982C7.09981 13.2441 6.61209 12.8709 6.31382 12.3597C6.01555 11.8484 5.93076 11.2402 6.07781 10.6669C6.4471 9.33344 6.9172 8.03 7.48406 6.76782L11.1009 7.67157C10.9747 9.07508 10.7479 10.4677 10.4222 11.8388ZM13.5759 14.0813C13.2087 12.6611 12.9637 11.212 12.8438 9.75L16.4447 8.85C17.0431 10.165 17.5368 11.5252 17.9213 12.9178C18.0026 13.2047 18.0262 13.505 17.9905 13.8011C17.9548 14.0972 17.8606 14.3832 17.7133 14.6426C17.5661 14.902 17.3688 15.1295 17.1328 15.3119C16.8969 15.4943 16.627 15.628 16.3389 15.7052C16.0508 15.7824 15.7503 15.8015 15.4547 15.7615C15.1592 15.7215 14.8745 15.6231 14.6173 15.472C14.3601 15.321 14.1356 15.1204 13.9566 14.8818C13.7777 14.6432 13.648 14.3714 13.575 14.0822L13.5759 14.0813ZM17.3259 4.08563C17.2818 3.99749 17.2555 3.90152 17.2484 3.8032C17.2414 3.70487 17.2539 3.60613 17.285 3.51262C17.3162 3.4191 17.3655 3.33265 17.4301 3.25821C17.4947 3.18376 17.5734 3.12278 17.6616 3.07875L19.1616 2.32875C19.2497 2.28468 19.3457 2.2584 19.444 2.25141C19.5423 2.24443 19.641 2.25687 19.7345 2.28804C19.828 2.3192 19.9144 2.36848 19.9889 2.43305C20.0634 2.49762 20.1244 2.57623 20.1684 2.66438C20.2125 2.75253 20.2388 2.8485 20.2458 2.9468C20.2528 3.04511 20.2403 3.14383 20.2092 3.23733C20.178 3.33082 20.1287 3.41727 20.0641 3.49172C19.9996 3.56617 19.921 3.62718 19.8328 3.67125L18.3328 4.42125C18.2447 4.46539 18.1487 4.49173 18.0504 4.49874C17.9521 4.50576 17.8533 4.49333 17.7598 4.46216C17.6663 4.43099 17.5798 4.38169 17.5054 4.31708C17.4309 4.25247 17.37 4.17382 17.3259 4.08563ZM21.75 6.75C21.75 6.94892 21.671 7.13968 21.5303 7.28033C21.3897 7.42099 21.1989 7.5 21 7.5H19.5C19.3011 7.5 19.1103 7.42099 18.9697 7.28033C18.829 7.13968 18.75 6.94892 18.75 6.75C18.75 6.55109 18.829 6.36033 18.9697 6.21967C19.1103 6.07902 19.3011 6 19.5 6H21C21.1989 6 21.3897 6.07902 21.5303 6.21967C21.671 6.36033 21.75 6.55109 21.75 6.75ZM3.07875 1.91438C3.12278 1.82618 3.18376 1.74753 3.2582 1.68293C3.33265 1.61832 3.4191 1.56902 3.51261 1.53785C3.60613 1.50668 3.70487 1.49424 3.80319 1.50126C3.90151 1.50828 3.99749 1.53461 4.08563 1.57875L5.58563 2.32875C5.67377 2.37283 5.75238 2.43383 5.81695 2.50829C5.88153 2.58274 5.9308 2.66918 5.96197 2.76268C5.99313 2.85618 6.00558 2.9549 5.99859 3.0532C5.99161 3.15151 5.96532 3.24748 5.92125 3.33563C5.87718 3.42378 5.81617 3.50238 5.74172 3.56696C5.66726 3.63153 5.58082 3.68081 5.48732 3.71197C5.2985 3.77491 5.0924 3.76027 4.91437 3.67125L3.41437 2.92125C3.32618 2.87723 3.24753 2.81625 3.18292 2.7418C3.11831 2.66736 3.06901 2.5809 3.03784 2.48739C3.00667 2.39388 2.99424 2.29513 3.00126 2.19681C3.00828 2.09849 3.03461 2.00252 3.07875 1.91438ZM3.75 6.75H2.25C2.05109 6.75 1.86032 6.67099 1.71967 6.53033C1.57902 6.38968 1.5 6.19892 1.5 6C1.5 5.80109 1.57902 5.61033 1.71967 5.46967C1.86032 5.32902 2.05109 5.25 2.25 5.25H3.75C3.94891 5.25 4.13968 5.32902 4.28033 5.46967C4.42098 5.61033 4.5 5.80109 4.5 6C4.5 6.19892 4.42098 6.38968 4.28033 6.53033C4.13968 6.67099 3.94891 6.75 3.75 6.75Z" fill="#343330"/>
</svg>
