<svg width="116" height="141" viewBox="0 0 116 141" fill="none" xmlns="http://www.w3.org/2000/svg">
<rect x="13.8788" y="52" width="72.1212" height="39" fill="#D9D9D9"/>
<circle cx="80.5" cy="71.5" r="19.5" fill="#D9D9D9"/>
<ellipse cx="81" cy="57.5" rx="3" ry="2.5" fill="#F9F5F5"/>
<ellipse cx="69" cy="56.5" rx="8" ry="1.5" fill="#F9F5F5"/>
<ellipse cx="13.9375" cy="70.7423" rx="2" ry="22" fill="#D9D9D9"/>
<line x1="85.1537" y1="43.0115" x2="46.1537" y2="20.0115" stroke="#D9D9D9"/>
<line x1="85.1537" y1="43.0115" x2="46.1537" y2="20.0115" stroke="black" stroke-opacity="0.2"/>
<line x1="85.1537" y1="43.0115" x2="46.1537" y2="20.0115" stroke="black" stroke-opacity="0.2"/>
<line x1="101.043" y1="34.9235" x2="69.0435" y2="0.923491" stroke="#D9D9D9"/>
<line x1="101.043" y1="34.9235" x2="69.0435" y2="0.923491" stroke="black" stroke-opacity="0.2"/>
<line x1="101.043" y1="34.9235" x2="69.0435" y2="0.923491" stroke="black" stroke-opacity="0.2"/>
<line x1="86.6616" y1="104.011" x2="47.6617" y2="127.012" stroke="#D9D9D9"/>
<line x1="86.6616" y1="104.011" x2="47.6617" y2="127.012" stroke="black" stroke-opacity="0.2"/>
<line x1="86.6616" y1="104.011" x2="47.6617" y2="127.012" stroke="black" stroke-opacity="0.2"/>
<line x1="101.769" y1="104.923" x2="69.7717" y2="138.926" stroke="#D9D9D9"/>
<line x1="101.769" y1="104.923" x2="69.7717" y2="138.926" stroke="black" stroke-opacity="0.2"/>
<line x1="101.769" y1="104.923" x2="69.7717" y2="138.926" stroke="black" stroke-opacity="0.2"/>
</svg>
