<svg width="46" height="46" viewBox="0 0 46 46" fill="none" xmlns="http://www.w3.org/2000/svg">
<path d="M32.1734 25.1022C31.7616 24.6896 31.2529 24.3869 30.6938 24.2219C30.9207 23.7784 31.0504 23.2916 31.0741 22.7941C31.0978 22.2965 31.015 21.7995 30.8313 21.3365C30.6475 20.8735 30.3671 20.455 30.0086 20.1091C29.6502 19.7631 29.222 19.4977 28.7528 19.3305L31.4663 16.617C32.1227 15.9606 32.4914 15.0704 32.4914 14.1421C32.4914 13.2138 32.1227 12.3236 31.4663 11.6672C30.8099 11.0108 29.9197 10.6421 28.9914 10.6421C28.0632 10.6421 27.1729 11.0108 26.5165 11.6672L19.4455 18.7383L19.6497 17.8588C19.7676 17.4144 19.7968 16.9511 19.7357 16.4953C19.6746 16.0396 19.5243 15.6003 19.2934 15.2027C18.8271 14.3996 18.0609 13.8146 17.1633 13.5764C16.2657 13.3382 15.3102 13.4664 14.5071 13.9327C13.704 14.399 13.119 15.1652 12.8809 16.0628L12.5662 17.203C10.246 25.6061 9.28524 29.0841 13.4351 33.234C15.4996 35.2938 18.2969 36.4506 21.2132 36.4506C24.1296 36.4506 26.9269 35.2938 28.9914 33.234L32.1734 30.052C32.8298 29.3956 33.1985 28.5054 33.1985 27.5771C33.1985 26.6489 32.8298 25.7586 32.1734 25.1022ZM27.5772 31.8198C25.8881 33.5051 23.5994 34.4517 21.2132 34.4517C18.8271 34.4517 16.5384 33.5051 14.8493 31.8198C11.5232 28.4937 12.2118 26.0003 14.4957 17.7342L14.8122 16.5887L14.8166 16.5843C14.9192 16.2002 15.1701 15.8725 15.5142 15.6733C15.8582 15.4741 16.2673 15.4196 16.6515 15.5218C16.906 15.5896 17.1378 15.7238 17.3233 15.9107C17.51 16.0969 17.6443 16.329 17.7128 16.5837C17.7812 16.8383 17.7813 17.1065 17.7131 17.3612C17.7096 17.3719 17.7069 17.3828 17.7051 17.3939L16.7037 21.6958C16.6551 21.9072 16.6766 22.1288 16.765 22.327C16.8533 22.5251 17.0038 22.6892 17.1936 22.7944C17.3834 22.8996 17.6022 22.9401 17.8171 22.91C18.032 22.8799 18.2313 22.7807 18.3848 22.6274L27.9308 13.0814C28.2121 12.8001 28.5936 12.6421 28.9914 12.6421C29.3892 12.6421 29.7708 12.8001 30.0521 13.0814C30.3334 13.3627 30.4914 13.7443 30.4914 14.1421C30.4914 14.5399 30.3334 14.9214 30.0521 15.2028L24.0417 21.2132C23.8541 21.4007 23.7488 21.655 23.7488 21.9203C23.7488 22.1855 23.8541 22.4398 24.0417 22.6274C24.2292 22.8149 24.4836 22.9203 24.7488 22.9203C25.014 22.9203 25.2683 22.8149 25.4559 22.6274L26.5165 21.5667C26.7978 21.2854 27.1794 21.1274 27.5772 21.1274C27.975 21.1274 28.3566 21.2854 28.6379 21.5667C28.9192 21.848 29.0772 22.2295 29.0772 22.6274C29.0772 23.0252 28.9192 23.4067 28.6379 23.688L26.8701 25.4558C26.6826 25.6433 26.5772 25.8977 26.5772 26.1629C26.5772 26.4281 26.6826 26.6825 26.8701 26.87C27.0576 27.0576 27.312 27.1629 27.5772 27.1629C27.8424 27.1629 28.0968 27.0576 28.2843 26.87L28.6379 26.5165C28.9192 26.2352 29.3007 26.0771 29.6985 26.0771C30.0963 26.0771 30.4779 26.2352 30.7592 26.5165C31.0405 26.7978 31.1985 27.1793 31.1985 27.5771C31.1985 27.9749 31.0405 28.3565 30.7592 28.6378L27.5772 31.8198Z" fill="#343330"/>
</svg>
