<svg width="32" height="32" viewBox="0 0 32 32" fill="none" xmlns="http://www.w3.org/2000/svg">
<path d="M10.4915 20.6132L9.33333 29.3333L15.4512 25.6626C15.6508 25.5429 15.7505 25.483 15.8571 25.4596C15.9512 25.4389 16.0488 25.4389 16.1429 25.4596C16.2495 25.483 16.3492 25.5429 16.5488 25.6626L22.6667 29.3333L21.5092 20.6094M21.9012 5.66513C22.1071 6.16316 22.5024 6.55902 23 6.76569L24.7452 7.4886C25.2433 7.6949 25.6389 8.09061 25.8453 8.58868C26.0516 9.08674 26.0516 9.64637 25.8453 10.1444L25.1229 11.8884C24.9165 12.3867 24.9163 12.9469 25.1236 13.4449L25.8447 15.1884C25.9469 15.4352 25.9996 15.6996 25.9996 15.9666C25.9997 16.2336 25.9471 16.4981 25.8449 16.7448C25.7428 16.9914 25.5929 17.2157 25.4041 17.4045C25.2152 17.5933 24.9911 17.743 24.7443 17.8452L23.0004 18.5674C22.5024 18.7734 22.1065 19.1686 21.8999 19.6664L21.1769 21.4117C20.9707 21.9097 20.5749 22.3054 20.0769 22.5117C19.5788 22.7181 19.0192 22.7181 18.5212 22.5117L16.7773 21.7893C16.2792 21.5836 15.7199 21.584 15.2221 21.7905L13.4769 22.5124C12.9791 22.7182 12.42 22.7181 11.9224 22.512C11.4247 22.3057 11.0293 21.9105 10.8228 21.413L10.0997 19.6672C9.8938 19.1692 9.49855 18.7733 9.00085 18.5666L7.25567 17.8437C6.75784 17.6376 6.36225 17.2421 6.15588 16.7442C5.94951 16.2465 5.94923 15.6872 6.15511 15.1892L6.87747 13.4452C7.08325 12.9471 7.08284 12.3877 6.87629 11.8899L6.15497 10.1434C6.05271 9.89672 6.00004 9.6323 6 9.36525C5.99996 9.09821 6.05253 8.83377 6.15472 8.58705C6.25691 8.34034 6.40672 8.11617 6.59557 7.92737C6.78443 7.73857 7.00863 7.58884 7.25536 7.48673L8.99929 6.76434C9.49687 6.5586 9.89248 6.16382 10.0993 5.66668L10.8222 3.92144C11.0285 3.42337 11.4242 3.02766 11.9222 2.82136C12.4203 2.61505 12.9799 2.61505 13.4779 2.82136L15.2219 3.54374C15.7199 3.74953 16.2793 3.74912 16.7771 3.54257L18.5229 2.82248C19.0209 2.61628 19.5804 2.61633 20.0784 2.82258C20.5763 3.02885 20.972 3.42445 21.1783 3.92238L21.9013 5.66816L21.9012 5.66513Z" stroke="black" stroke-width="2" stroke-linecap="round" stroke-linejoin="round"/>
</svg>
