<svg width="24" height="24" viewBox="0 0 24 24" fill="none" xmlns="http://www.w3.org/2000/svg">
<g clip-path="url(#clip0_21_42)">
<rect width="24" height="24" fill="#000001"/>
<path d="M17.1987 7.11726C16.2457 6.68237 15.2177 6.36745 14.1447 6.1875C14.1222 6.1875 14.1072 6.195 14.0922 6.20999C13.9571 6.44243 13.8145 6.74235 13.7095 6.97479C12.5539 6.80234 11.4058 6.80234 10.2803 6.97479C10.1827 6.73486 10.0327 6.44243 9.89761 6.20999C9.8901 6.195 9.86759 6.1875 9.85258 6.1875C8.77956 6.36745 7.75156 6.68987 6.79859 7.11726C6.79109 7.11726 6.78359 7.12475 6.77608 7.13225C4.83264 9.98901 4.29988 12.7783 4.5625 15.5301C4.5625 15.5451 4.57001 15.56 4.58502 15.5675C5.86064 16.4973 7.10624 17.0597 8.32184 17.4346C8.34435 17.4421 8.35936 17.4346 8.37436 17.4196C8.6595 17.0297 8.92213 16.6248 9.13974 16.1899C9.15474 16.1674 9.13974 16.1374 9.11723 16.1224C8.71203 15.9724 8.32184 15.785 7.94665 15.575C7.91664 15.56 7.91664 15.5151 7.93915 15.5001C8.01419 15.4401 8.09673 15.3801 8.17176 15.3201C8.18677 15.3126 8.20178 15.3051 8.21679 15.3126C10.6705 16.4148 13.3343 16.4148 15.758 15.3126C15.773 15.3051 15.7955 15.3051 15.8105 15.3201C15.8855 15.3801 15.9606 15.4401 16.0431 15.5001C16.0731 15.5226 16.0656 15.56 16.0356 15.575C15.6604 15.7925 15.2702 15.9724 14.865 16.1224C14.835 16.1299 14.8275 16.1599 14.8425 16.1899C15.0676 16.6173 15.3228 17.0297 15.6079 17.4121C15.6229 17.4271 15.6379 17.4346 15.6604 17.4271C16.8835 17.0522 18.1291 16.4898 19.4122 15.5675C19.4197 15.56 19.4273 15.5451 19.4348 15.5301C19.7499 12.3434 18.9095 9.58411 17.2137 7.13225C17.2137 7.13225 17.2062 7.12475 17.1987 7.11726ZM9.50742 13.858C8.76455 13.858 8.15676 13.1907 8.15676 12.3734C8.15676 11.5561 8.75705 10.8888 9.50742 10.8888C10.2653 10.8888 10.8656 11.5636 10.8581 12.3734C10.8581 13.1907 10.2578 13.858 9.50742 13.858ZM14.4973 13.858C13.7545 13.858 13.1467 13.1907 13.1467 12.3734C13.1467 11.5561 13.747 10.8888 14.4973 10.8888C15.2552 10.8888 15.8555 11.5636 15.848 12.3734C15.848 13.1907 15.2552 13.858 14.4973 13.858Z" fill="white"/>
</g>
<defs>
<clipPath id="clip0_21_42">
<rect width="24" height="24" rx="12" fill="white"/>
</clipPath>
</defs>
</svg>
