<svg width="32" height="32" viewBox="0 0 32 32" fill="none" xmlns="http://www.w3.org/2000/svg">
<path d="M26.6667 28C26.6667 26.1392 26.6667 25.2089 26.4371 24.4519C25.92 22.7473 24.586 21.4133 22.8815 20.8963C22.1244 20.6667 21.1942 20.6667 19.3334 20.6667H12.6667C10.806 20.6667 9.87557 20.6667 9.11852 20.8963C7.41397 21.4133 6.08009 22.7473 5.56303 24.4519C5.33337 25.2089 5.33337 26.1392 5.33337 28M22 10C22 13.3137 19.3138 16 16 16C12.6863 16 10 13.3137 10 10C10 6.68629 12.6863 4 16 4C19.3138 4 22 6.68629 22 10Z" stroke="black" stroke-width="2" stroke-linecap="round" stroke-linejoin="round"/>
</svg>
