<svg width="24" height="24" viewBox="0 0 24 24" fill="none" xmlns="http://www.w3.org/2000/svg">
<path d="M21 9.75H20.2153C20.0269 7.70144 19.0799 5.7972 17.56 4.41077C16.0402 3.02433 14.0572 2.25574 12 2.25574C9.9428 2.25574 7.95981 3.02433 6.43998 4.41077C4.92015 5.7972 3.97314 7.70144 3.78469 9.75H3C2.80109 9.75 2.61032 9.82902 2.46967 9.96967C2.32902 10.1103 2.25 10.3011 2.25 10.5C2.2533 12.2836 2.74415 14.0324 3.66948 15.5572C4.59481 17.082 5.9194 18.3248 7.5 19.1512V19.5C7.5 19.8978 7.65804 20.2794 7.93934 20.5607C8.22064 20.842 8.60218 21 9 21H15C15.3978 21 15.7794 20.842 16.0607 20.5607C16.342 20.2794 16.5 19.8978 16.5 19.5V19.1512C18.0806 18.3248 19.4052 17.082 20.3305 15.5572C21.2559 14.0324 21.7467 12.2836 21.75 10.5C21.75 10.3011 21.671 10.1103 21.5303 9.96967C21.3897 9.82902 21.1989 9.75 21 9.75ZM18.7069 9.75H13.8862C14.7955 8.38583 16.1712 7.40017 17.7553 6.97781C18.2733 7.8203 18.5982 8.76702 18.7069 9.75ZM16.2637 5.27156C16.4356 5.41219 16.6003 5.56062 16.7578 5.71687C14.7613 6.4192 13.1114 7.86263 12.15 9.74812H9.38437C9.85313 8.43415 10.7161 7.29694 11.8555 6.49185C12.9948 5.68677 14.3549 5.25306 15.75 5.25C15.9216 5.25 16.0931 5.25844 16.2637 5.27156ZM12 3.75C12.6018 3.7504 13.2009 3.83143 13.7812 3.99094C12.3679 4.34154 11.072 5.0585 10.024 6.06958C8.97606 7.08066 8.21316 8.35011 7.81219 9.75H5.29312C5.47917 8.10081 6.26562 6.57775 7.50254 5.47119C8.73946 4.36464 10.3403 3.75197 12 3.75ZM15.4369 18C15.306 18.0601 15.1953 18.1566 15.1178 18.278C15.0404 18.3993 14.9995 18.5404 15 18.6844V19.5H9V18.6844C9.00055 18.5404 8.95965 18.3993 8.88218 18.278C8.80471 18.1566 8.69395 18.0601 8.56312 18C7.24417 17.3931 6.10807 16.4499 5.26885 15.2651C4.42963 14.0803 3.91681 12.6956 3.78188 11.25H20.2153C20.0806 12.6953 19.5682 14.0798 18.7295 15.2646C17.8908 16.4493 16.7553 17.3927 15.4369 18Z" fill="#343330"/>
</svg>
