<svg width="32" height="32" viewBox="0 0 32 32" fill="none" xmlns="http://www.w3.org/2000/svg">
<path d="M4.55131 14.326C3.75752 14.0173 3.36061 13.8629 3.24475 13.6405C3.14429 13.4477 3.14416 13.2181 3.24439 13.0251C3.36 12.8026 3.75671 12.6478 4.55015 12.3381L27.0671 3.55103C27.7834 3.27152 28.1415 3.13177 28.3703 3.20821C28.5691 3.27461 28.725 3.43056 28.7914 3.62929C28.8679 3.85813 28.7282 4.21625 28.4486 4.93249L19.6615 27.4495C19.3519 28.2429 19.197 28.6396 18.9744 28.7552C18.7816 28.8555 18.5519 28.8553 18.3591 28.7549C18.1367 28.6391 17.9823 28.2421 17.6736 27.4483L14.1695 18.4376C14.1068 18.2765 14.0755 18.196 14.0271 18.1281C13.9842 18.068 13.9316 18.0153 13.8715 17.9725C13.8036 17.9241 13.7231 17.8928 13.562 17.8301L4.55131 14.326Z" stroke="black" stroke-width="2" stroke-linecap="round" stroke-linejoin="round"/>
</svg>
