<svg width="160" height="160" viewBox="0 0 160 160" fill="none" xmlns="http://www.w3.org/2000/svg">
<path d="M140 140H30.6667C26.933 140 25.0661 140 23.6401 139.273C22.3857 138.634 21.3658 137.615 20.7266 136.36C20 134.934 20 133.067 20 129.333V20M133.333 53.3333L107.207 81.218C106.217 82.2747 105.723 82.8027 105.125 83.076C104.598 83.3173 104.017 83.4167 103.44 83.3647C102.786 83.3053 102.143 82.972 100.858 82.3047L79.142 71.0287C77.8567 70.3613 77.214 70.028 76.56 69.9687C75.9827 69.9167 75.402 70.016 74.8747 70.2573C74.2773 70.5307 73.7827 71.0587 72.7927 72.1153L46.6667 100" stroke="black" stroke-width="2" stroke-linecap="round" stroke-linejoin="round"/>
</svg>
