<svg width="38" height="37" viewBox="0 0 38 37" fill="none" xmlns="http://www.w3.org/2000/svg">
<path d="M34.9375 29.779H32.6719V19.6279L33.0032 19.9578C33.2162 20.1694 33.5048 20.2882 33.8057 20.2879C34.1066 20.2876 34.395 20.1684 34.6076 19.9564C34.8201 19.7443 34.9394 19.4569 34.9391 19.1574C34.9389 18.8578 34.8191 18.5706 34.6062 18.359L20.6796 4.49698C20.2548 4.07425 19.6787 3.83679 19.0781 3.83679C18.4775 3.83679 17.9015 4.07425 17.4766 4.49698L3.5501 18.359C3.33772 18.5706 3.21849 18.8576 3.21862 19.1567C3.21875 19.4559 3.33824 19.7428 3.55081 19.9542C3.76337 20.1657 4.05159 20.2844 4.35206 20.2843C4.65254 20.2842 4.94065 20.1652 5.15303 19.9535L5.48438 19.6279V29.779H3.21875C2.91831 29.779 2.63017 29.8978 2.41773 30.1094C2.20529 30.3209 2.08594 30.6078 2.08594 30.9069C2.08594 31.2061 2.20529 31.4929 2.41773 31.7045C2.63017 31.916 2.91831 32.0348 3.21875 32.0348H34.9375C35.2379 32.0348 35.5261 31.916 35.7385 31.7045C35.951 31.4929 36.0703 31.2061 36.0703 30.9069C36.0703 30.6078 35.951 30.3209 35.7385 30.1094C35.5261 29.8978 35.2379 29.779 34.9375 29.779ZM7.75 17.372L19.0781 6.09297L30.4062 17.372V29.779H23.6094V21.8837C23.6094 21.5845 23.49 21.2976 23.2776 21.0861C23.0651 20.8746 22.777 20.7558 22.4766 20.7558H15.6797C15.3792 20.7558 15.0911 20.8746 14.8787 21.0861C14.6662 21.2976 14.5469 21.5845 14.5469 21.8837V29.779H7.75V17.372ZM21.3438 29.779H16.8125V23.0116H21.3438V29.779Z" fill="#343330"/>
</svg>
