<svg width="64" height="64" viewBox="0 0 64 64" fill="none" xmlns="http://www.w3.org/2000/svg">
<path d="M60 52H56V34L56.585 34.585C56.9609 34.9603 57.4706 35.1709 58.0018 35.1704C58.533 35.1699 59.0422 34.9585 59.4175 34.5825C59.7928 34.2066 60.0033 33.697 60.0029 33.1658C60.0024 32.6346 59.7909 32.1253 59.415 31.75L34.8275 7.17004C34.0774 6.42046 33.0604 5.99939 32 5.99939C30.9396 5.99939 29.9226 6.42046 29.1725 7.17004L4.585 31.75C4.21005 32.1253 3.99954 32.6342 3.99977 33.1647C4.00001 33.6952 4.21097 34.2038 4.58625 34.5788C4.96153 34.9537 5.47039 35.1642 6.00088 35.164C6.53138 35.1638 7.04005 34.9528 7.415 34.5775L8 34V52H4C3.46957 52 2.96086 52.2107 2.58579 52.5858C2.21071 52.9609 2 53.4696 2 54C2 54.5305 2.21071 55.0392 2.58579 55.4142C2.96086 55.7893 3.46957 56 4 56H60C60.5304 56 61.0391 55.7893 61.4142 55.4142C61.7893 55.0392 62 54.5305 62 54C62 53.4696 61.7893 52.9609 61.4142 52.5858C61.0391 52.2107 60.5304 52 60 52ZM12 30L32 10L52 30V52H40V38C40 37.4696 39.7893 36.9609 39.4142 36.5858C39.0391 36.2107 38.5304 36 38 36H26C25.4696 36 24.9609 36.2107 24.5858 36.5858C24.2107 36.9609 24 37.4696 24 38V52H12V30ZM36 52H28V40H36V52Z" fill="#343330"/>
</svg>
