<svg width="40" height="41" viewBox="0 0 40 41" fill="none" xmlns="http://www.w3.org/2000/svg">
<path d="M20.0001 0.853088C14.5683 0.853088 13.8872 0.876022 11.754 0.972854C9.62524 1.06951 8.17139 1.40605 6.8992 1.89803C5.58402 2.40672 4.46867 3.08738 3.35683 4.19395C2.24493 5.30052 1.56103 6.41071 1.04997 7.71965C0.555532 8.98575 0.217509 10.4327 0.120276 12.5514C0.0229834 14.6745 0 15.3524 0 20.7584C0 26.1642 0.0229834 26.8421 0.120276 28.9652C0.217509 31.0839 0.555532 32.5309 1.04997 33.797C1.56109 35.1059 2.24499 36.216 3.35683 37.3226C4.46873 38.4292 5.58402 39.1099 6.8992 39.6186C8.17139 40.1106 9.62524 40.447 11.754 40.5437C13.8872 40.6406 14.5683 40.6635 20.0001 40.6635C25.4317 40.6635 26.1128 40.6406 28.246 40.5437C30.3748 40.4471 31.8286 40.1106 33.1007 39.6186C34.4159 39.1099 35.5313 38.4292 36.6432 37.3226C37.7551 36.216 38.439 35.1059 38.9501 33.797C39.4444 32.5309 39.7825 31.0839 39.8797 28.9652C39.977 26.8421 40 26.1642 40 20.7584C40 15.3524 39.977 14.6745 39.8797 12.5514C39.7825 10.4327 39.4444 8.98575 38.9501 7.71965C38.439 6.41071 37.7551 5.30052 36.6432 4.19395C35.5313 3.08738 34.4159 2.40672 33.1007 1.89803C31.8286 1.40605 30.3748 1.06951 28.246 0.972854C26.1128 0.876022 25.4317 0.853088 20.0001 0.853088ZM20.0001 4.43959C25.3402 4.43959 25.9728 4.45991 28.0817 4.55568C30.0317 4.64415 31.0907 4.96843 31.7954 5.24102C32.729 5.60216 33.3952 6.03345 34.095 6.73C34.795 7.42655 35.2283 8.08967 35.5912 9.01876C35.8651 9.72016 36.1909 10.7742 36.2798 12.7149C36.376 14.8138 36.3964 15.4434 36.3964 20.7583C36.3964 26.0732 36.376 26.7028 36.2798 28.8017C36.1909 30.7425 35.8651 31.7964 35.5912 32.4978C35.2283 33.427 34.795 34.0901 34.095 34.7865C33.3952 35.4831 32.729 35.9144 31.7954 36.2756C31.0907 36.5482 30.0317 36.8724 28.0817 36.9609C25.9731 37.0567 25.3406 37.077 20 37.077C14.6594 37.077 14.027 37.0567 11.9183 36.9609C9.96826 36.8724 8.9093 36.5482 8.20461 36.2756C7.27098 35.9144 6.60476 35.4831 5.90496 34.7865C5.20509 34.0901 4.77168 33.4269 4.40883 32.4978C4.13494 31.7964 3.80918 30.7424 3.72022 28.8017C3.624 26.7028 3.60358 26.0732 3.60358 20.7583C3.60358 15.4434 3.624 14.8138 3.72022 12.7149C3.80918 10.7741 4.13494 9.72016 4.40883 9.01882C4.77168 8.08961 5.20509 7.42655 5.9049 6.73006C6.60476 6.03345 7.27104 5.60216 8.20455 5.24102C8.9093 4.96843 9.96832 4.64415 11.9183 4.55568C14.0272 4.45991 14.6598 4.43959 20 4.43959" fill="#100F0D"/>
<path d="M20.0001 27.3934C16.3181 27.3934 13.3333 24.4228 13.3333 20.7584C13.3333 17.0938 16.3181 14.1232 20.0001 14.1232C23.6819 14.1232 26.6667 17.0938 26.6667 20.7584C26.6667 24.4228 23.6819 27.3934 20.0001 27.3934ZM20.0001 10.5367C14.3279 10.5367 9.72974 15.113 9.72974 20.7584C9.72974 26.4036 14.3279 30.9799 20.0001 30.9799C25.6721 30.9799 30.2703 26.4036 30.2703 20.7584C30.2703 15.113 25.6721 10.5367 20.0001 10.5367V10.5367ZM33.0761 10.1329C33.0761 11.4521 32.0015 12.5215 30.676 12.5215C29.3506 12.5215 28.2761 11.4521 28.2761 10.1329C28.2761 8.81366 29.3506 7.74419 30.676 7.74419C32.0015 7.74419 33.0761 8.81366 33.0761 10.1329" fill="#100F0D"/>
</svg>
