<svg width="24" height="25" viewBox="0 0 24 25" fill="none" xmlns="http://www.w3.org/2000/svg">
<path d="M12 0.725128C8.74101 0.725128 8.33234 0.738888 7.0524 0.796987C5.77514 0.85498 4.90283 1.0569 4.13952 1.35209C3.35041 1.65731 2.6812 2.0657 2.0141 2.72965C1.34696 3.39359 0.936617 4.0597 0.629984 4.84507C0.333319 5.60472 0.130505 6.4729 0.0721656 7.74411C0.0137901 9.01798 0 9.42471 0 12.6683C0 15.9118 0.0137901 16.3185 0.0721656 17.5924C0.130505 18.8636 0.333319 19.7318 0.629984 20.4914C0.936653 21.2768 1.347 21.9429 2.0141 22.6069C2.68124 23.2708 3.35041 23.6792 4.13952 23.9844C4.90283 24.2796 5.77514 24.4815 7.0524 24.5395C8.33234 24.5976 8.74101 24.6114 12 24.6114C15.259 24.6114 15.6677 24.5976 16.9476 24.5395C18.2249 24.4815 19.0972 24.2796 19.8604 23.9844C20.6495 23.6792 21.3188 23.2708 21.9859 22.6069C22.653 21.9429 23.0634 21.2768 23.3701 20.4914C23.6666 19.7318 23.8695 18.8636 23.9278 17.5924C23.9862 16.3185 24 15.9118 24 12.6683C24 9.42471 23.9862 9.01798 23.9278 7.74411C23.8695 6.4729 23.6666 5.60472 23.3701 4.84507C23.0634 4.0597 22.653 3.39359 21.9859 2.72965C21.3188 2.0657 20.6495 1.65731 19.8604 1.35209C19.0972 1.0569 18.2249 0.85498 16.9476 0.796987C15.6677 0.738888 15.259 0.725128 12 0.725128ZM12 2.87703C15.2041 2.87703 15.5837 2.88922 16.849 2.94668C18.019 2.99977 18.6544 3.19433 19.0772 3.35789C19.6374 3.57457 20.0371 3.83335 20.457 4.25128C20.877 4.6692 21.137 5.06708 21.3547 5.62453C21.519 6.04537 21.7145 6.67778 21.7679 7.84221C21.8256 9.10157 21.8379 9.47932 21.8379 12.6683C21.8379 15.8572 21.8256 16.2349 21.7679 17.4943C21.7145 18.6588 21.519 19.2911 21.3547 19.7119C21.137 20.2695 20.877 20.6673 20.457 21.0852C20.0371 21.5032 19.6374 21.7619 19.0773 21.9786C18.6544 22.1422 18.019 22.3367 16.849 22.3898C15.5839 22.4473 15.2044 22.4595 12 22.4595C8.79563 22.4595 8.41619 22.4473 7.15097 22.3898C5.98096 22.3367 5.34558 22.1422 4.92277 21.9786C4.36259 21.7619 3.96286 21.5032 3.54297 21.0852C3.12306 20.6673 2.86301 20.2694 2.6453 19.712C2.48096 19.2911 2.28551 18.6587 2.23213 17.4943C2.1744 16.2349 2.16215 15.8572 2.16215 12.6683C2.16215 9.47932 2.1744 9.10157 2.23213 7.84221C2.28551 6.67774 2.48096 6.04537 2.6453 5.62456C2.86301 5.06704 3.12306 4.6692 3.54294 4.25131C3.96286 3.83335 4.36263 3.57457 4.92273 3.35789C5.34558 3.19433 5.98099 2.99977 7.15097 2.94668C8.41633 2.88922 8.79588 2.87703 12 2.87703" fill="#100F0D"/>
<path d="M12.0001 16.6493C9.79089 16.6493 8.00004 14.867 8.00004 12.6683C8.00004 10.4696 9.79089 8.68722 12.0001 8.68722C14.2092 8.68722 16.0001 10.4696 16.0001 12.6683C16.0001 14.867 14.2092 16.6493 12.0001 16.6493ZM12.0001 6.53532C8.59676 6.53532 5.83789 9.28111 5.83789 12.6683C5.83789 16.0554 8.59676 18.8012 12.0001 18.8012C15.4033 18.8012 18.1622 16.0554 18.1622 12.6683C18.1622 9.28111 15.4033 6.53532 12.0001 6.53532V6.53532ZM19.8457 6.293C19.8457 7.08456 19.201 7.72617 18.4057 7.72617C17.6104 7.72617 16.9657 7.08456 16.9657 6.293C16.9657 5.50149 17.6104 4.8598 18.4057 4.8598C19.201 4.8598 19.8457 5.50149 19.8457 6.293" fill="#100F0D"/>
</svg>
