<svg width="20" height="20" viewBox="0 0 20 20" fill="none" xmlns="http://www.w3.org/2000/svg">
<path d="M19.7625 9.44034L10.8639 0.834213L10.0014 0L3.30284 6.47835L0.240195 9.44034C0.0868443 9.58883 0.00070858 9.79013 0.00070858 10C0.00070858 10.2099 0.0868443 10.4112 0.240195 10.5597L6.36003 16.4784L10.0014 20L16.6999 13.5216L16.8036 13.4213L19.7625 10.5597C19.9159 10.4112 20.002 10.2099 20.002 10C20.002 9.79013 19.9159 9.58883 19.7625 9.44034ZM10.0014 12.9567L6.94417 10L10.0014 7.04329L13.0585 10L10.0014 12.9567Z" fill="#2684FF"/>
<path d="M10.0014 7.04331C9.03984 6.11327 8.49786 4.85308 8.49377 3.5379C8.48967 2.22271 9.02381 0.959386 9.97953 0.0237732L3.2892 6.49157L6.93053 10.0132L10.0014 7.04331Z" fill="url(#paint0_linear_207_492)"/>
<path d="M13.0667 9.99207L10.0014 12.9567C10.4797 13.4191 10.8592 13.9681 11.1181 14.5723C11.377 15.1766 11.5103 15.8243 11.5103 16.4783C11.5103 17.1324 11.377 17.7801 11.1181 18.3844C10.8592 18.9886 10.4797 19.5376 10.0014 20L16.7081 13.5137L13.0667 9.99207Z" fill="url(#paint1_linear_207_492)"/>
<defs>
<linearGradient id="paint0_linear_207_492" x1="9.45544" y1="4.05228" x2="5.32892" y2="8.31904" gradientUnits="userSpaceOnUse">
<stop offset="0.18" stop-color="#0052CC"/>
<stop offset="1" stop-color="#2684FF"/>
</linearGradient>
<linearGradient id="paint1_linear_207_492" x1="10.5855" y1="15.9134" x2="14.7041" y2="11.6548" gradientUnits="userSpaceOnUse">
<stop offset="0.18" stop-color="#0052CC"/>
<stop offset="1" stop-color="#2684FF"/>
</linearGradient>
</defs>
</svg>
