<svg width="20" height="20" viewBox="0 0 20 20" fill="none" xmlns="http://www.w3.org/2000/svg">
<path d="M8.38453 18.1568L2.27754 14.6345C2.1875 14.5763 2.11864 14.5445 2.11864 14.428V3.78709C2.11864 3.70067 2.17161 3.64408 2.21928 3.61759L5.3178 1.83264C5.41843 1.77437 5.50318 1.77437 5.59852 1.83264L8.67585 3.60171C8.79767 3.67056 8.80297 3.7606 8.80297 3.84005V10.429L11.3718 8.95128V5.58264C11.3718 5.46611 11.4248 5.39726 11.5519 5.3231L14.6186 3.55933C14.6928 3.51696 14.7511 3.51696 14.8252 3.55933L17.9502 5.36018C18.0508 5.41844 18.0614 5.4873 18.0614 5.58793V9.08899C18.0614 9.20022 18.035 9.25848 17.9237 9.32734L14.9735 11.0223V14.3803C14.9735 14.5127 14.9417 14.5657 14.8252 14.6345L8.69703 18.1568C8.58051 18.2203 8.50106 18.2203 8.38453 18.1568ZM8.2892 17.5053V14.5498L5.36547 12.8973C5.27013 12.839 5.20127 12.7966 5.20127 12.6536V5.75213L2.62712 4.27437V14.2479L8.2892 17.5053ZM14.465 14.2479V11.3136L8.80297 14.5498V17.5053L14.465 14.2479ZM14.1946 10.8775L11.6314 9.3909L5.98517 12.6483L8.53814 14.0996L14.1946 10.8775ZM8.2892 10.7203V4.26908L5.72034 5.75213V12.2034L8.2892 10.7203ZM14.465 10.4237V7.50001L11.8909 6.01696V8.95128L14.465 10.4237ZM17.5477 8.95128V6.01696L14.9735 7.50001V10.4237L17.5477 8.95128ZM14.7193 7.0498L17.2828 5.57204L14.7193 4.09429L12.1504 5.57204L14.7193 7.0498ZM8.0258 3.82421L5.45551 2.34641L2.89195 3.82416L5.45551 5.30721L8.0258 3.82421Z" fill="#FF2D20"/>
</svg>
