<svg width="32" height="32" viewBox="0 0 32 32" fill="none" xmlns="http://www.w3.org/2000/svg">
<path d="M27.3333 9.70381L16 16.0002M16 16.0002L4.66663 9.70381M16 16.0002V28.6668M28 21.4115V10.5887C28 10.1319 28 9.90347 27.9327 9.69973C27.8732 9.51949 27.7757 9.35405 27.6472 9.21447C27.5017 9.05668 27.3021 8.94575 26.9027 8.72388L17.036 3.2424C16.6579 3.03232 16.4688 2.92728 16.2687 2.88609C16.0913 2.84965 15.9087 2.84965 15.7315 2.88609C15.5312 2.92728 15.3421 3.03232 14.964 3.2424L5.09729 8.72388C4.69793 8.94575 4.49825 9.05668 4.35284 9.21447C4.22421 9.35405 4.12687 9.51949 4.06731 9.69973C4 9.90347 4 10.1319 4 10.5887V21.4115C4 21.8684 4 22.0968 4.06731 22.3006C4.12687 22.4808 4.22421 22.6463 4.35284 22.7858C4.49825 22.9436 4.69793 23.0546 5.09729 23.2764L14.964 28.7579C15.3421 28.968 15.5312 29.073 15.7315 29.1142C15.9087 29.1507 16.0913 29.1507 16.2687 29.1142C16.4688 29.073 16.6579 28.968 17.036 28.7579L26.9027 23.2764C27.3021 23.0546 27.5017 22.9436 27.6472 22.7858C27.7757 22.6463 27.8732 22.4808 27.9327 22.3006C28 22.0968 28 21.8684 28 21.4115Z" stroke="black" stroke-width="2" stroke-linecap="round" stroke-linejoin="round"/>
<path d="M22 12.6667L10 6" stroke="black" stroke-width="2" stroke-linecap="round" stroke-linejoin="round"/>
</svg>
