<svg width="20" height="20" viewBox="0 0 20 20" fill="none" xmlns="http://www.w3.org/2000/svg">
<path d="M12.5977 2.06014L2.37109 2.80077C2.36797 2.80099 2.36484 2.80125 2.36172 2.80155C2.3565 2.80223 2.35129 2.80301 2.34609 2.80389C2.3364 2.8051 2.32676 2.80667 2.31719 2.80858C2.31327 2.80956 2.30936 2.81061 2.30547 2.81171C2.30102 2.81267 2.2966 2.81371 2.29219 2.81483C2.28244 2.81759 2.27279 2.82072 2.26328 2.82421C2.25697 2.82665 2.25071 2.82926 2.24453 2.83202C2.24086 2.83353 2.23722 2.83509 2.23359 2.83671C2.21259 2.8464 2.19246 2.85791 2.17344 2.87108C2.17002 2.87311 2.16664 2.8752 2.16328 2.87733C2.15496 2.88353 2.14688 2.89004 2.13906 2.89686C2.13749 2.89841 2.13592 2.89998 2.13438 2.90155C2.12767 2.90732 2.12115 2.91332 2.11484 2.91952C2.11084 2.92386 2.10693 2.92829 2.10313 2.9328C2.09717 2.93938 2.09144 2.94615 2.08594 2.95311C2.08382 2.95569 2.08174 2.9583 2.07969 2.96093C2.07364 2.96904 2.06791 2.97738 2.0625 2.98593C2.06091 2.98851 2.05935 2.99112 2.05781 2.99374C2.05255 3.00214 2.0476 3.01074 2.04297 3.01952C2.04109 3.02314 2.03927 3.02678 2.0375 3.03046C2.03322 3.03994 2.02931 3.04958 2.02578 3.05936C2.02526 3.0604 2.02474 3.06144 2.02422 3.06249C2.01616 3.08508 2.01014 3.10835 2.00625 3.13202C2.0054 3.13617 2.00462 3.14034 2.00391 3.14452C2.00244 3.15515 2.00139 3.16584 2.00078 3.17655V3.17811C2.00032 3.1854 2.00006 3.19269 2 3.19999V13.4953C2 13.9056 2.12606 14.3067 2.36172 14.643C2.36788 14.6518 2.37439 14.6604 2.38125 14.6687L4.85078 17.6406C4.87461 17.6835 4.90612 17.7216 4.94375 17.7531L5.1 17.9406C5.11984 17.9645 5.14238 17.986 5.16719 18.0047C5.40203 18.2325 5.72687 18.367 6.07734 18.3445L16.8773 17.6476C17.505 17.6071 18 17.0788 18 16.45V6.05311C18 5.68373 17.8262 5.35626 17.5617 5.13593C17.543 5.11449 17.522 5.09511 17.4992 5.07811L17.3055 4.93514C17.2812 4.91206 17.2542 4.89212 17.225 4.87577L13.9297 2.4453C13.546 2.16218 13.0731 2.02565 12.5977 2.06014ZM12.6555 2.8578C12.9408 2.8371 13.2247 2.91937 13.4547 3.08905L15.907 4.89843L5.89688 5.55389C5.55223 5.57639 5.21508 5.44887 4.97031 5.20468H4.96953L3.30156 3.53593L12.6555 2.8578ZM2.8 4.16561L4.40469 5.7703L4.8 6.16561V16.3273L3.01563 14.1797C2.87597 13.979 2.8 13.7405 2.8 13.4953V4.16561ZM16.7742 5.65389C17.0107 5.63872 17.2 5.81645 17.2 6.05311V16.45C17.2 16.6644 17.0398 16.8354 16.8258 16.8492L6.02578 17.5461C5.90834 17.5536 5.80254 17.5134 5.72578 17.4422L5.725 17.4414L5.72422 17.4406C5.72259 17.4391 5.72192 17.4367 5.72031 17.4351C5.71877 17.433 5.71721 17.431 5.71562 17.4289C5.6449 17.3574 5.6 17.2598 5.6 17.1469V6.74999C5.6 6.535 5.76 6.36462 5.97422 6.35077L16.7742 5.65389ZM15.3984 7.59999L13.3688 7.71249C13.0592 7.74449 12.6984 7.97519 12.6984 8.34999L13.5984 8.42499V12.7015L10.4859 7.90077L8.15313 8.03202C7.71673 8.06402 7.59766 8.38837 7.59766 8.80077H8.49766V15.0265C8.49766 15.0265 8.07674 15.1401 7.93594 15.1765C7.63674 15.2537 7.59766 15.5139 7.59766 15.7015C7.59766 15.7015 9.09866 15.6262 9.78906 15.5742C10.5727 15.5142 10.5984 14.989 10.5984 14.989L9.69844 14.8015V10.1883C9.69844 10.1883 11.9863 13.8641 12.6859 14.9445C13.0151 15.4521 13.261 15.5515 13.6938 15.5515C14.049 15.5515 14.3849 15.4466 14.7977 15.2234V8.27889C14.7977 8.27889 14.8737 8.27484 15.1133 8.19764C15.3865 8.10924 15.3984 7.86239 15.3984 7.59999Z" fill="black"/>
</svg>
