<svg width="20" height="16" viewBox="0 0 20 16" fill="none" xmlns="http://www.w3.org/2000/svg">
<g clip-path="url(#clip0_207_443)">
<path d="M16.4435 5.18621C16.2307 5.12053 16.0162 5.05955 15.8 5.00325C15.8359 4.8719 15.8693 4.74002 15.9 4.60762C16.387 2.4809 16.0687 0.767022 14.98 0.202504C13.9365 -0.338557 12.2304 0.225961 10.507 1.5747C10.3371 1.70762 10.1713 1.84445 10.0096 1.98519C9.90116 1.89137 9.79101 1.79963 9.67913 1.70997C7.87217 0.268964 6.06087 -0.337775 4.97391 0.226742C3.93304 0.769368 3.62435 2.38082 4.06087 4.39651C4.10551 4.59615 4.15478 4.79475 4.2087 4.99231C3.95391 5.05798 3.70609 5.12757 3.46957 5.20185C1.35217 5.86645 0 6.90635 0 7.98534C0 9.09952 1.45217 10.2176 3.65739 10.8939C3.83594 10.9492 4.01623 11.0003 4.19826 11.0472C4.13913 11.2593 4.08696 11.4731 4.04174 11.6883C3.62261 13.6688 3.94957 15.242 4.98956 15.7815C6.06261 16.3382 7.86435 15.7658 9.62 14.3866C9.75913 14.2782 9.89826 14.163 10.0374 14.041C10.2125 14.1937 10.3922 14.3418 10.5765 14.4851C12.2774 15.8002 13.9557 16.3304 14.9939 15.7909C16.0678 15.2318 16.4165 13.5422 15.9635 11.4866C15.9287 11.3302 15.8887 11.1702 15.8435 11.0065C15.9699 10.9732 16.0939 10.9385 16.2157 10.9025C18.5087 10.2192 20 9.11438 20 7.98534C20 6.90166 18.6043 5.85472 16.4435 5.18621ZM11.0696 2.15486C12.5461 0.999241 13.9261 0.544186 14.5565 0.869448C15.2261 1.2166 15.4852 2.61695 15.0643 4.45359C15.0371 4.57348 15.0072 4.69258 14.9748 4.81091C14.0935 4.63129 13.1999 4.50435 12.3 4.43091C11.7843 3.7649 11.2193 3.13092 10.6087 2.53329C10.7583 2.40402 10.9113 2.27788 11.0678 2.15486H11.0696ZM5.90435 8.90562C6.0858 9.22046 6.27507 9.5306 6.47217 9.83606C6.67333 10.1488 6.88261 10.4571 7.1 10.761C6.48085 10.7008 5.86555 10.6121 5.25652 10.4952C5.43391 9.98149 5.6513 9.44746 5.90522 8.9064L5.90435 8.90562ZM5.90435 7.09947C5.65565 6.56936 5.44348 6.04784 5.26956 5.54353C5.83913 5.42859 6.44783 5.33477 7.08174 5.26362C6.86957 5.56073 6.66522 5.86306 6.4687 6.1706C6.27159 6.47605 6.08406 6.78568 5.90435 7.09947ZM6.35826 8.00333C6.62145 7.51074 6.90551 7.02754 7.21043 6.55372C7.51304 6.07938 7.83594 5.61677 8.17913 5.16588C8.77391 5.12522 9.38348 5.10333 10 5.10333C10.6191 5.10333 11.2296 5.12522 11.8243 5.16588C12.1635 5.61677 12.4846 6.07808 12.7878 6.54981C13.0928 7.02207 13.3803 7.50292 13.6504 7.99238C13.3838 8.48653 13.0974 8.97182 12.7913 9.44824C12.4881 9.92154 12.1681 10.3855 11.8313 10.84C11.2383 10.8791 10.6252 10.8978 10 10.8978C9.37739 10.8978 8.77217 10.8806 8.18957 10.8462C7.84406 10.3928 7.51826 9.92806 7.21217 9.45215C6.90725 8.97781 6.62261 8.49461 6.35826 8.00255V8.00333ZM13.5322 9.83293C13.7328 9.51861 13.9258 9.20065 14.1113 8.87903C14.3654 9.39574 14.5895 9.92396 14.7826 10.4616C14.1668 10.5858 13.5442 10.6811 12.9174 10.7469C13.1284 10.4457 13.333 10.1407 13.5313 9.83215L13.5322 9.83293ZM14.1026 7.10026C13.9183 6.78542 13.727 6.47371 13.5287 6.16513C13.3328 5.86176 13.1299 5.56204 12.92 5.26596C13.5574 5.33868 14.1687 5.43485 14.7435 5.55291C14.5589 6.07831 14.345 6.59423 14.1026 7.10026ZM10.0087 3.08452C10.4248 3.49228 10.8178 3.91869 11.1861 4.36211C10.3988 4.32823 9.61101 4.32823 8.82261 4.36211C9.2113 3.9008 9.6087 3.47233 10.0087 3.08452ZM5.40348 0.891341C6.07304 0.543404 7.5513 1.0399 9.1113 2.28543C9.2113 2.36519 9.3113 2.44807 9.4113 2.53407C8.79719 3.13179 8.22782 3.76546 7.70696 4.43091C6.80966 4.50334 5.91852 4.62792 5.03913 4.80387C4.98812 4.62039 4.94232 4.43535 4.90174 4.24874V4.2503C4.52522 2.52234 4.77478 1.21973 5.40348 0.892905V0.891341ZM4.42609 10.3075C4.26087 10.2648 4.09681 10.2187 3.93391 10.1691C3.08644 9.92942 2.29528 9.55147 1.6 9.05417C1.40103 8.93119 1.23224 8.77281 1.10406 8.58884C0.975884 8.40486 0.891041 8.1992 0.854783 7.98456C0.854783 7.33013 1.94 6.49508 3.75043 5.92822C3.97826 5.85628 4.20783 5.79113 4.43913 5.73275C4.70776 6.50808 5.03311 7.26659 5.41304 8.00333C5.0283 8.75078 4.69889 9.52026 4.42696 10.3067L4.42609 10.3075ZM9.05739 13.8104C8.4032 14.3499 7.64419 14.7766 6.81826 15.0692C6.6007 15.163 6.36407 15.2157 6.12298 15.224C5.88188 15.2323 5.64145 15.1961 5.41652 15.1177C4.78609 14.7893 4.52348 13.5273 4.88087 11.8338C4.92377 11.6331 4.97246 11.434 5.02696 11.2364C5.91566 11.4079 6.81628 11.5249 7.72261 11.5867C8.2477 12.2557 8.82111 12.893 9.43913 13.4945C9.31507 13.6024 9.18812 13.7074 9.05826 13.8096L9.05739 13.8104ZM10.033 12.9409C9.62783 12.5484 9.22435 12.1137 8.82957 11.6461C9.21217 11.6597 9.60232 11.6664 10 11.6664C10.4075 11.6664 10.8099 11.6586 11.207 11.643C10.8406 12.0934 10.4487 12.5266 10.033 12.9409ZM15.2217 14.0097C15.2033 14.2262 15.1357 14.437 15.0231 14.629C14.9105 14.8211 14.7552 14.9903 14.567 15.1263C13.9365 15.4547 12.5887 15.0277 11.1348 13.9034C10.9684 13.7752 10.8009 13.6381 10.6322 13.4921C11.2383 12.8888 11.7984 12.2493 12.3087 11.5781C13.2201 11.509 14.1251 11.3836 15.0174 11.2028C15.058 11.3508 15.0939 11.4957 15.1252 11.6375C15.3187 12.4165 15.3512 13.2209 15.2209 14.0105L15.2217 14.0097ZM15.947 10.173C15.8365 10.2059 15.7243 10.2372 15.6096 10.2669C15.3301 9.48789 14.9919 8.72692 14.5974 7.98925C14.9773 7.26162 15.3027 6.51195 15.5713 5.74526C15.7748 5.79764 15.9739 5.85472 16.1652 5.91336C18.0174 6.4857 19.1461 7.33326 19.1461 7.98534C19.1461 8.68122 17.9261 9.58351 15.9461 10.173H15.947Z" fill="#61DAFB"/>
<path d="M10 6.37936C10.3533 6.37936 10.6987 6.47359 10.9925 6.65013C11.2862 6.82667 11.5152 7.07758 11.6503 7.37113C11.7854 7.66467 11.8207 7.98766 11.7516 8.29923C11.6826 8.61081 11.5123 8.89696 11.2623 9.1215C11.0124 9.34604 10.694 9.49887 10.3474 9.56066C10.0008 9.62245 9.64162 9.59042 9.31529 9.46863C8.98895 9.34684 8.71013 9.14075 8.51408 8.87644C8.31803 8.61214 8.21357 8.30148 8.21391 7.98378C8.21461 7.55826 8.40309 7.15037 8.73797 6.8497C9.07285 6.54902 9.52675 6.37936 10 6.37936Z" fill="#61DAFB"/>
</g>
<defs>
<clipPath id="clip0_207_443">
<rect width="20" height="16" fill="white"/>
</clipPath>
</defs>
</svg>
