<svg width="37" height="37" viewBox="0 0 37 37" fill="none" xmlns="http://www.w3.org/2000/svg">
<path d="M18.125 3.83716C15.2124 3.83716 12.3651 4.69712 9.94337 6.30828C7.5216 7.91945 5.63406 10.2095 4.51944 12.8887C3.40482 15.568 3.11318 18.5162 3.68141 21.3605C4.24964 24.2048 5.65221 26.8175 7.71175 28.8681C9.7713 30.9187 12.3953 32.3152 15.252 32.881C18.1087 33.4468 21.0697 33.1564 23.7606 32.0466C26.4515 30.9368 28.7515 29.0574 30.3697 26.6462C31.9879 24.2349 32.8516 21.4 32.8516 18.4999C32.8474 14.6124 31.2946 10.8852 28.5337 8.13632C25.7728 5.38741 22.0295 3.84126 18.125 3.83716ZM10.4899 28.2986C11.3093 27.0225 12.4383 25.9724 13.7726 25.2449C15.107 24.5175 16.6037 24.1362 18.125 24.1362C19.6463 24.1362 21.143 24.5175 22.4774 25.2449C23.8117 25.9724 24.9407 27.0225 25.7602 28.2986C23.5771 29.9891 20.8905 30.9068 18.125 30.9068C15.3595 30.9068 12.6729 29.9891 10.4899 28.2986ZM13.5938 17.372C13.5938 16.4797 13.8595 15.6075 14.3574 14.8655C14.8553 14.1236 15.563 13.5453 16.391 13.2038C17.2189 12.8624 18.13 12.773 19.009 12.9471C19.888 13.1212 20.6954 13.5509 21.3291 14.1818C21.9628 14.8128 22.3944 15.6167 22.5692 16.4919C22.744 17.367 22.6543 18.2742 22.3113 19.0986C21.9684 19.923 21.3876 20.6276 20.6424 21.1233C19.8973 21.6191 19.0212 21.8837 18.125 21.8837C16.9232 21.8837 15.7707 21.4083 14.9209 20.5622C14.0712 19.7162 13.5938 18.5686 13.5938 17.372ZM27.4367 26.7351C26.1733 24.9122 24.3968 23.502 22.3306 22.6817C23.4405 21.8113 24.2504 20.6181 24.6476 19.2682C25.0449 17.9182 25.0098 16.4786 24.5472 15.1494C24.0846 13.8203 23.2175 12.6677 22.0665 11.8519C20.9155 11.0362 19.5378 10.5978 18.125 10.5978C16.7122 10.5978 15.3345 11.0362 14.1835 11.8519C13.0325 12.6677 12.1654 13.8203 11.7028 15.1494C11.2402 16.4786 11.2051 17.9182 11.6024 19.2682C11.9996 20.6181 12.8095 21.8113 13.9194 22.6817C11.8532 23.502 10.0767 24.9122 8.81329 26.7351C7.21683 24.9476 6.17337 22.7387 5.80857 20.3744C5.44376 18.0101 5.77317 15.5912 6.75712 13.409C7.74106 11.2268 9.3376 9.3743 11.3545 8.07462C13.3714 6.77493 15.7226 6.08345 18.125 6.08345C20.5274 6.08345 22.8787 6.77493 24.8955 8.07462C26.9124 9.3743 28.5089 11.2268 29.4929 13.409C30.4768 15.5912 30.8063 18.0101 30.4414 20.3744C30.0766 22.7387 29.0332 24.9476 27.4367 26.7351Z" fill="#343330"/>
</svg>
