<svg width="64" height="64" viewBox="0 0 64 64" fill="none" xmlns="http://www.w3.org/2000/svg">
<path d="M32 6C26.8577 6 21.8309 7.52487 17.5552 10.3818C13.2795 13.2387 9.94702 17.2994 7.97914 22.0502C6.01127 26.8011 5.49638 32.0288 6.49959 37.0723C7.50281 42.1159 9.97907 46.7486 13.6152 50.3848C17.2514 54.0209 21.8842 56.4972 26.9277 57.5004C31.9712 58.5036 37.1989 57.9887 41.9498 56.0209C46.7007 54.053 50.7613 50.7205 53.6182 46.4448C56.4751 42.1691 58 37.1423 58 32C57.9927 25.1066 55.2511 18.4976 50.3767 13.6233C45.5024 8.74889 38.8934 6.00728 32 6ZM18.52 49.375C19.9668 47.1122 21.96 45.25 24.3158 43.9601C26.6716 42.6703 29.3142 41.9941 32 41.9941C34.6858 41.9941 37.3284 42.6703 39.6842 43.9601C42.04 45.25 44.0332 47.1122 45.48 49.375C41.6258 52.3725 36.8826 53.9998 32 53.9998C27.1175 53.9998 22.3742 52.3725 18.52 49.375ZM24 30C24 28.4177 24.4692 26.871 25.3483 25.5554C26.2273 24.2398 27.4767 23.2145 28.9385 22.609C30.4004 22.0035 32.0089 21.845 33.5607 22.1537C35.1126 22.4624 36.538 23.2243 37.6569 24.3431C38.7757 25.462 39.5376 26.8874 39.8463 28.4393C40.155 29.9911 39.9965 31.5997 39.391 33.0615C38.7855 34.5233 37.7602 35.7727 36.4446 36.6518C35.129 37.5308 33.5823 38 32 38C29.8783 38 27.8434 37.1571 26.3432 35.6569C24.8429 34.1566 24 32.1217 24 30ZM48.44 46.6025C46.2094 43.3702 43.073 40.8695 39.425 39.415C41.3845 37.8716 42.8144 35.756 43.5158 33.3622C44.2172 30.9685 44.1553 28.4157 43.3385 26.0589C42.5218 23.702 40.991 21.6582 38.9589 20.2117C36.9267 18.7652 34.4944 17.9879 32 17.9879C29.5057 17.9879 27.0733 18.7652 25.0412 20.2117C23.009 21.6582 21.4782 23.702 20.6615 26.0589C19.8448 28.4157 19.7828 30.9685 20.4842 33.3622C21.1856 35.756 22.6155 37.8716 24.575 39.415C20.9271 40.8695 17.7906 43.3702 15.56 46.6025C12.7414 43.4329 10.8992 39.5161 10.2551 35.3238C9.61106 31.1314 10.1926 26.8422 11.9298 22.9727C13.667 19.1033 16.4857 15.8184 20.0465 13.5138C23.6074 11.2092 27.7585 9.98312 32 9.98312C36.2416 9.98312 40.3927 11.2092 43.9535 13.5138C47.5143 15.8184 50.333 19.1033 52.0702 22.9727C53.8074 26.8422 54.389 31.1314 53.7449 35.3238C53.1008 39.5161 51.2586 43.4329 48.44 46.6025Z" fill="#343330"/>
</svg>
